#!OML:ASF Y:\EmotionMaleHayes\Project 1\Capture day 1\Session 1\Male1.ASF
:FULLY-SPECIFIED
:DEGREES
1041
root 46.4905 17.1408 0.188096 995.435 92.0704 998.982
lowerback 4.44509 2.39261 -5.21096
upperback -1.70854 2.86396 -0.455109
thorax -4.50172 1.5658 2.20354
lowerneck -17.5782 4.50045 7.2031
upperneck 24.1676 5.68712 -4.11017
head 11.0594 2.87583 -1.83346
rclavicle 2.1916e-014 -2.5842e-015
rhumerus -39.9463 -1.22926 -87.2917
rradius 35.1365
rwrist 1.89648
rhand -7.207 -32.9828
rfingers 7.12502
rthumb 18.6717 -62.1066
lclavicle 2.1916e-014 -2.5842e-015
lhumerus -38.931 -11.8743 92.9317
lradius 31.0749
lwrist -0.0247954
lhand -15.4119 -22.2164
lfingers 7.12502
lthumb 10.7674 7.48767
rfemur 12.9092 -5.77481 12.4216
rtibia 3.49381
rfoot -15.7695 -5.31855
rtoes 6.90402
lfemur 17.44 -2.63405 -19.1981
ltibia -0.963704
lfoot -13.1538 6.42126
ltoes -3.95511
1042
root 46.4899 17.1384 0.190344 993.918 91.7236 997.517
lowerback 4.69354 2.38086 -4.90553
upperback -1.81501 2.85251 -0.349219
thorax -4.74223 1.55884 2.13094
lowerneck -17.4893 4.44111 7.22919
upperneck 24.2207 5.6245 -4.16745
head 11.0603 2.8463 -1.86975
rclavicle -3.42904e-015 1.61016e-014
rhumerus -40.1878 -0.952974 -87.5095
rradius 35.1536
rwrist 1.62941
rhand -7.54172 -32.8478
rfingers 7.12502
rthumb 18.3497 -62.0023
lclavicle -3.42904e-015 1.61016e-014
lhumerus -39.158 -11.6054 92.9413
lradius 31.0899
lwrist -0.228284
lhand -15.0722 -22.031
lfingers 7.12502
lthumb 11.0951 7.65572
rfemur 12.8542 -5.65481 12.8952
rtibia 3.63437
rfoot -15.8595 -5.37613
rtoes 7.12564
lfemur 17.5596 -2.71336 -18.8014
ltibia -1.03992
lfoot -13.1466 6.55438
ltoes -3.49499
1043
root 46.4854 17.1418 0.195507 991.579 91.9101 995.114
lowerback 4.73013 2.40709 -5.12657
upperback -1.85059 2.86818 -0.413785
thorax -4.81015 1.57458 2.18303
lowerneck -17.4703 4.34349 7.25447
upperneck 24.1427 5.50924 -4.2988
head 11.0244 2.77918 -1.93987
rclavicle 4.32854e-014 8.34896e-015
rhumerus -40.2142 -0.898309 -87.6474
rradius 35.122
rwrist 1.55339
rhand -7.77482 -32.7709
rfingers 7.12502
rthumb 18.1255 -61.9463
lclavicle 4.32854e-014 8.34896e-015
lhumerus -39.1946 -11.5256 92.9742
lradius 31.0123
lwrist -0.415035
lhand -15.0306 -22.155
lfingers 7.12502
lthumb 11.1352 7.52955
rfemur 12.6813 -5.42258 12.7735
rtibia 3.74467
rfoot -15.9478 -5.5634
rtoes 7.03037
lfemur 17.4243 -2.66507 -18.9794
ltibia -0.954527
lfoot -13.1824 6.61238
ltoes -3.34466
1044
root 46.497 17.1404 0.191938 992.019 92.0357 995.56
lowerback 4.49665 2.36865 -5.23625
upperback -1.71479 2.8282 -0.41509
thorax -4.53811 1.55008 2.26011
lowerneck -17.5591 4.32325 7.26104
upperneck 24.0234 5.50396 -4.46346
head 11.0019 2.75247 -2.00042
rclavicle -2.52457e-014 2.5842e-015
rhumerus -40.0496 -0.758383 -87.7121
rradius 35.0857
rwrist 1.66765
rhand -7.66349 -32.8453
rfingers 7.12502
rthumb 18.2326 -62.0108
lclavicle -2.52457e-014 2.5842e-015
lhumerus -39.0349 -11.5267 93.1094
lradius 30.8501
lwrist -0.47253
lhand -14.9992 -22.1619
lfingers 7.12502
lthumb 11.1655 7.521
rfemur 12.7813 -5.70529 12.487
rtibia 3.71656
rfoot -15.9082 -5.26136
rtoes 7.14862
lfemur 17.4922 -2.58359 -19.1639
ltibia -0.96764
lfoot -13.2173 6.54588
ltoes -4.13177
1045
root 46.4927 17.139 0.198247 990.421 91.701 993.985
lowerback 4.70474 2.37805 -4.93713
upperback -1.7972 2.84755 -0.316799
thorax -4.73301 1.55721 2.18268
lowerneck -17.4925 4.29223 7.22468
upperneck 24.0211 5.4765 -4.46007
head 10.9848 2.73887 -1.99827
rclavicle -2.60408e-014 -1.8487e-014
rhumerus -40.1582 -0.645214 -87.841
rradius 35.0416
rwrist 1.73299
rhand -7.51954 -32.9761
rfingers 7.12502
rthumb 18.3711 -62.1286
lclavicle -2.60408e-014 -1.8487e-014
lhumerus -39.1928 -11.6208 93.2742
lradius 30.7471
lwrist -0.575453
lhand -14.8884 -22.1167
lfingers 7.12502
lthumb 11.2724 7.56042
rfemur 12.7251 -5.36083 13.0637
rtibia 3.72616
rfoot -15.9678 -5.56429
rtoes 7.75338
lfemur 17.4826 -2.61077 -18.7018
ltibia -0.910594
lfoot -13.3313 6.5673
ltoes -3.51817
1046
root 46.4925 17.1369 0.201605 988.748 91.2806 992.408
lowerback 4.88669 2.36402 -4.54668
upperback -1.81385 2.84823 -0.17685
thorax -4.84011 1.54946 2.10218
lowerneck -17.5129 4.28434 7.1968
upperneck 24.073 5.47806 -4.46754
head 11.0075 2.73669 -1.99595
rclavicle 1.71203e-014 -7.55382e-015
rhumerus -40.2279 -0.445036 -87.9903
rradius 34.9925
rwrist 1.62356
rhand -7.51202 -33.0504
rfingers 7.12502
rthumb 18.3783 -62.2022
lclavicle 1.71203e-014 -7.55382e-015
lhumerus -39.2946 -11.6066 93.4173
lradius 30.6687
lwrist -0.703405
lhand -14.9639 -22.2103
lfingers 7.12502
lthumb 11.1995 7.47076
rfemur 12.7786 -5.26536 13.6419
rtibia 3.7819
rfoot -16.0158 -5.66491
rtoes 7.73251
lfemur 17.6251 -2.65124 -18.1672
ltibia -0.953532
lfoot -13.4196 6.57067
ltoes -3.03952
1047
root 46.4945 17.1387 0.203425 989.011 91.4303 992.655
lowerback 4.7373 2.34815 -4.70032
upperback -1.68948 2.82635 -0.220499
thorax -4.62951 1.53673 2.15417
lowerneck -17.7366 4.26464 7.13612
upperneck 24.087 5.43084 -4.41573
head 11.0494 2.71005 -1.97124
rclavicle 1.39398e-014 1.88845e-014
rhumerus -40.0377 -0.321662 -88.1438
rradius 34.8961
rwrist 1.51843
rhand -7.67591 -32.8749
rfingers 7.12502
rthumb 18.2207 -62.0415
lclavicle 1.39398e-014 1.88845e-014
lhumerus -39.1049 -11.6385 93.4782
lradius 30.5966
lwrist -0.742703
lhand -14.9791 -22.234
lfingers 7.12502
lthumb 11.1849 7.44787
rfemur 12.7748 -5.28472 13.465
rtibia 3.80125
rfoot -16.0374 -5.66414
rtoes 7.43363
lfemur 17.6166 -2.69072 -18.3642
ltibia -0.962458
lfoot -13.3649 6.61035
ltoes -3.89576
1048
root 46.4963 17.1398 0.2049 988.259 91.5592 991.878
lowerback 4.62513 2.34756 -4.82039
upperback -1.60889 2.8248 -0.264238
thorax -4.48566 1.53482 2.18268
lowerneck -17.8414 4.23085 7.024
upperneck 24.0564 5.37375 -4.31324
head 11.0478 2.68277 -1.92255
rclavicle -2.08724e-015 -5.76476e-015
rhumerus -39.9106 -0.200721 -88.2723
rradius 34.8082
rwrist 1.54036
rhand -7.73789 -32.6662
rfingers 7.12502
rthumb 18.161 -61.8384
lclavicle -2.08724e-015 -5.76476e-015
lhumerus -39.0065 -11.6829 93.5364
lradius 30.5783
lwrist -0.78696
lhand -14.7975 -22.1428
lfingers 7.12502
lthumb 11.3601 7.52951
rfemur 12.7277 -5.28713 13.3098
rtibia 3.85757
rfoot -16.0526 -5.62181
rtoes 7.44322
lfemur 17.6068 -2.76166 -18.5695
ltibia -0.977632
lfoot -13.341 6.72009
ltoes -3.86926
1049
root 46.4996 17.1406 0.206023 988.33 91.5847 991.914
lowerback 4.57261 2.33555 -4.83357
upperback -1.60806 2.81041 -0.2845
thorax -4.45355 1.52725 2.17253
lowerneck -17.8139 4.2012 7.03057
upperneck 24.04 5.33744 -4.33736
head 11.0349 2.66426 -1.93841
rclavicle 7.92654e-015 3.37934e-015
rhumerus -39.9157 -0.0377277 -88.4204
rradius 34.7573
rwrist 1.53932
rhand -7.70006 -32.5938
rfingers 7.12502
rthumb 18.1974 -61.7626
lclavicle 7.92654e-015 3.37934e-015
lhumerus -39.1204 -11.8398 93.6627
lradius 30.6212
lwrist -0.763086
lhand -14.6946 -22.0069
lfingers 7.12502
lthumb 11.4592 7.65992
rfemur 12.6656 -5.37054 13.2609
rtibia 3.94499
rfoot -16.0785 -5.51962
rtoes 7.45146
lfemur 17.6075 -2.85864 -18.66
ltibia -1.0066
lfoot -13.3872 6.83142
ltoes -3.33032
1050
root 46.5039 17.1417 0.206269 990.146 91.4791 993.713
lowerback 4.61485 2.29594 -4.72143
upperback -1.66259 2.76162 -0.25835
thorax -4.52619 1.50252 2.13848
lowerneck -17.677 4.16676 7.13953
upperneck 23.9788 5.30737 -4.49242
head 10.9914 2.64402 -2.01942
rclavicle -1.2424e-016 -1.74931e-014
rhumerus -40.0325 0.134421 -88.5655
rradius 34.7307
rwrist 1.53746
rhand -7.64687 -32.6092
rfingers 7.12502
rthumb 18.2486 -61.7732
lclavicle -1.2424e-016 -1.74931e-014
lhumerus -39.3629 -11.9898 93.8554
lradius 30.6744
lwrist -0.65699
lhand -14.5845 -21.81
lfingers 7.12502
lthumb 11.5654 7.85089
rfemur 12.6626 -5.48006 13.3723
rtibia 3.96487
rfoot -16.0966 -5.45179
rtoes 7.51794
lfemur 17.6363 -2.9407 -18.5702
ltibia -1.05746
lfoot -13.2983 6.91051
ltoes -4.19429
